<svg t="1637226636622" class="icon" viewBox="0 0 1024 1024" version="1.1" xmlns="http://www.w3.org/2000/svg" p-id="2441" width="200" height="200"><path d="M256.002176 1023.991296a25.599782 25.599782 0 0 1-18.124646-43.673229l442.671437-442.671437-442.671437-442.671437a25.599782 25.599782 0 0 1 36.198092-36.198093l460.796084 460.796084a25.599782 25.599782 0 0 1 0 36.198092l-460.796084 460.796083a25.497383 25.497383 0 0 1-18.124646 7.475137z" fill="" p-id="2442"></path></svg><svg t="1637226636622" class="icon" viewBox="0 0 1024 1024" version="1.1" xmlns="http://www.w3.org/2000/svg" p-id="2441" width="32" height="32"><path d="M256.002176 1023.991296a25.599782 25.599782 0 0 1-18.124646-43.673229l442.671437-442.671437-442.671437-442.671437a25.599782 25.599782 0 0 1 36.198092-36.198093l460.796084 460.796084a25.599782 25.599782 0 0 1 0 36.198092l-460.796084 460.796083a25.497383 25.497383 0 0 1-18.124646 7.475137z" fill="" p-id="2442"></path></svg>