<svg xml:space="preserve" viewBox="0 0 850.39 368.5" height="368.5px" width="850.39px" y="0px" x="0px" xmlns:xlink="http://www.w3.org/1999/xlink" xmlns="http://www.w3.org/2000/svg" id="图层_1" version="1.1">
<g>
	<g>
		<path d="M455.7,335.975l0.024,0.025c1.749,1.717,2.624,3.816,2.625,6.3
			c0.008,2.452-0.867,4.562-2.625,6.325c-1.723,1.715-3.83,2.574-6.324,2.575c-2.393,0.007-4.484-0.843-6.275-2.55
			c-0.016-0.018-0.032-0.035-0.05-0.051c-1.716-1.757-2.574-3.857-2.575-6.3c0.001-2.494,0.859-4.603,2.575-6.325h0.024
			c1.799-1.756,3.898-2.631,6.301-2.625C451.884,333.352,453.983,334.227,455.7,335.975z M452.875,338.8
			c-0.945-0.968-2.104-1.451-3.475-1.45c-1.332,0.008-2.499,0.499-3.5,1.476h0.024c-0.951,0.944-1.426,2.103-1.425,3.475
			c-0.001,1.334,0.457,2.483,1.375,3.45c0.017,0.017,0.033,0.033,0.05,0.05c0.998,0.927,2.156,1.394,3.476,1.4
			c1.372,0.001,2.53-0.474,3.475-1.425c0.977-0.97,1.468-2.128,1.475-3.476c0.002-1.371-0.481-2.529-1.449-3.475L452.875,338.8z
			 M206.325,334.5c0.48,0.271,0.798,0.67,0.95,1.2c0.152,0.531,0.094,1.04-0.176,1.524c-0.27,0.482-0.67,0.799-1.199,0.95
			c-0.53,0.152-1.039,0.094-1.525-0.175l-5.15-2.9c-0.48-0.271-0.798-0.67-0.949-1.199c-0.152-0.531-0.095-1.04,0.175-1.525
			c0.27-0.482,0.67-0.799,1.2-0.95s1.038-0.093,1.524,0.175L206.325,334.5z M330.325,347.125c0.231-0.504,0.606-0.854,1.125-1.05
			c0.514-0.196,1.022-0.179,1.524,0.05c0.504,0.232,0.854,0.607,1.051,1.125l2.8,7.35c0.195,0.516,0.179,1.023-0.05,1.525
			c-0.232,0.504-0.607,0.854-1.125,1.05c-0.515,0.196-1.022,0.179-1.525-0.05c-0.504-0.232-0.854-0.607-1.05-1.125l-2.8-7.35
			C330.08,348.135,330.097,347.627,330.325,347.125z M324.775,344.575c0.538,0.075,0.971,0.333,1.3,0.774
			c0.338,0.439,0.472,0.931,0.399,1.476c-0.067,0.546-0.317,0.987-0.75,1.325l-8.899,6.75c-0.448,0.328-0.948,0.453-1.5,0.375
			c-0.538-0.076-0.972-0.334-1.3-0.775c-0.339-0.439-0.472-0.931-0.4-1.475c0.068-0.546,0.318-0.988,0.75-1.325l8.9-6.75
			C323.723,344.621,324.223,344.496,324.775,344.575z M323.425,337.15c0.498,0.244,0.84,0.627,1.025,1.149
			c0.178,0.52,0.145,1.028-0.101,1.525c-0.244,0.499-0.627,0.841-1.149,1.024c-0.519,0.179-1.026,0.146-1.525-0.1l-7.649-3.7
			c-0.498-0.245-0.84-0.628-1.025-1.149c-0.179-0.52-0.146-1.028,0.1-1.525c0.245-0.5,0.628-0.842,1.15-1.025
			c0.518-0.178,1.026-0.145,1.525,0.101L323.425,337.15z M342.675,335.625c0.503-0.229,1.012-0.245,1.525-0.05
			c0.518,0.195,0.893,0.545,1.125,1.05c0.229,0.502,0.245,1.01,0.05,1.525c-0.196,0.517-0.546,0.892-1.05,1.125l-7.15,3.35
			c-0.503,0.229-1.011,0.245-1.524,0.05c-0.518-0.195-0.893-0.545-1.125-1.05c-0.229-0.502-0.246-1.01-0.051-1.525
			c0.196-0.517,0.547-0.892,1.051-1.125L342.675,335.625z M329.4,326.15c0.556-0.004,1.03,0.188,1.425,0.574
			c0.387,0.395,0.578,0.869,0.575,1.426v5.55c0.003,0.556-0.188,1.03-0.575,1.425c-0.395,0.387-0.869,0.578-1.425,0.575
			c-0.557,0.003-1.031-0.188-1.426-0.575c-0.387-0.395-0.578-0.869-0.574-1.425v-5.55c-0.004-0.557,0.188-1.031,0.574-1.426
			C328.369,326.338,328.844,326.146,329.4,326.15z M204.575,320.35c0.546,0.055,0.995,0.296,1.35,0.726
			c0.36,0.421,0.519,0.903,0.476,1.45c-0.048,0.545-0.28,0.995-0.7,1.35l-3.851,3.35c-0.43,0.36-0.922,0.52-1.475,0.476
			c-0.546-0.054-0.996-0.296-1.35-0.726c-0.36-0.42-0.519-0.903-0.476-1.449c0.047-0.546,0.28-0.996,0.7-1.351l3.85-3.35
			C203.53,320.465,204.022,320.307,204.575,320.35z M372.575,286.5c0.401,0.382,0.609,0.848,0.625,1.4
			c0.015,0.549-0.169,1.023-0.55,1.425c-0.383,0.401-0.85,0.609-1.4,0.625c-17.041,0.5-33.8,1.233-50.275,2.2
			c-0.551,0.033-1.034-0.135-1.449-0.5c-0.416-0.368-0.641-0.826-0.676-1.375c-0.033-0.552,0.134-1.035,0.5-1.45
			c0.368-0.415,0.826-0.64,1.375-0.675c16.525-0.967,33.333-1.701,50.426-2.2C371.699,285.936,372.174,286.119,372.575,286.5z
			 M824.875,341.75c0.521,0.174,0.904,0.508,1.15,1c0.253,0.494,0.295,1.002,0.125,1.525c-0.174,0.52-0.508,0.902-1,1.149
			c-0.496,0.253-1.004,0.294-1.525,0.125c-3.134-1.033-6.25-2.066-9.35-3.1l0.05,0.024c-0.784-0.241-1.534-0.482-2.25-0.725
			c-0.521-0.174-0.903-0.508-1.15-1c-0.253-0.494-0.295-1.003-0.125-1.525c0.174-0.52,0.507-0.903,1-1.149
			c0.494-0.253,1.003-0.295,1.525-0.125c0.684,0.225,1.4,0.45,2.149,0.675l0.051,0.025
			C818.625,339.684,821.741,340.717,824.875,341.75z M592.075,347.25c0.384-0.395,0.851-0.594,1.399-0.6
			c0.551-0.006,1.025,0.186,1.426,0.574l3.75,3.65c0.393,0.385,0.593,0.852,0.6,1.4c0.005,0.551-0.187,1.026-0.575,1.425
			c-0.384,0.394-0.851,0.595-1.399,0.6c-0.551,0.005-1.025-0.187-1.426-0.575l-3.75-3.649c-0.393-0.385-0.593-0.851-0.6-1.4
			C591.495,348.123,591.687,347.648,592.075,347.25z M584.05,345.85c0.556-0.004,1.031,0.188,1.425,0.575
			c0.387,0.394,0.579,0.869,0.575,1.425c0.004,0.557-0.188,1.031-0.575,1.426l-3.8,3.75c-0.394,0.387-0.869,0.578-1.425,0.574
			c-0.556,0.004-1.031-0.188-1.425-0.574c-0.388-0.395-0.579-0.869-0.575-1.426c-0.004-0.556,0.188-1.031,0.575-1.425l3.8-3.75
			C583.02,346.038,583.494,345.846,584.05,345.85z M581.25,333.45l2.9,2.95c0.379,0.398,0.562,0.873,0.55,1.425
			c-0.006,0.549-0.206,1.016-0.601,1.399c-0.398,0.389-0.873,0.58-1.425,0.575c-0.556-0.006-1.031-0.206-1.425-0.6l-2.9-2.95
			c-0.379-0.398-0.562-0.873-0.55-1.425c0.006-0.55,0.206-1.017,0.601-1.4c0.398-0.388,0.873-0.58,1.425-0.575
			C580.381,332.855,580.856,333.056,581.25,333.45z M594.25,334.8c0.384-0.392,0.85-0.593,1.4-0.6
			c0.551-0.015,1.025,0.169,1.425,0.55c0.402,0.383,0.61,0.85,0.625,1.4c0.014,0.557-0.17,1.041-0.55,1.449l-2.851,2.851
			c-0.384,0.392-0.851,0.593-1.399,0.6c-0.551,0.015-1.026-0.169-1.426-0.55c-0.402-0.383-0.61-0.85-0.625-1.4
			c-0.014-0.557,0.17-1.041,0.551-1.449L594.25,334.8z M653.375,337.25c0.471-0.293,0.971-0.376,1.5-0.25
			c0.532,0.139,0.94,0.446,1.225,0.925c0.293,0.47,0.377,0.97,0.25,1.5c-0.139,0.532-0.447,0.94-0.925,1.226l-5.35,3.199
			c-0.471,0.293-0.971,0.376-1.5,0.25c-0.532-0.138-0.94-0.446-1.226-0.925c-0.293-0.47-0.376-0.97-0.25-1.5
			c0.14-0.531,0.447-0.94,0.926-1.225L653.375,337.25z M662.075,337.925c0.422-0.36,0.905-0.519,1.45-0.475
			c0.545,0.054,0.995,0.296,1.35,0.725l3.45,4.2c0.359,0.422,0.518,0.905,0.475,1.45c-0.054,0.546-0.296,0.997-0.725,1.35
			c-0.422,0.36-0.905,0.519-1.45,0.476c-0.545-0.055-0.995-0.297-1.35-0.726l-3.45-4.2c-0.359-0.422-0.519-0.904-0.476-1.449
			C661.404,338.729,661.646,338.278,662.075,337.925z M669.55,327.775c0.315,0.448,0.424,0.939,0.325,1.475
			c-0.106,0.546-0.39,0.979-0.85,1.3l-4.2,2.95c-0.45,0.314-0.941,0.424-1.476,0.325c-0.546-0.106-0.979-0.39-1.3-0.851
			c-0.315-0.448-0.424-0.939-0.325-1.475c0.107-0.546,0.391-0.979,0.851-1.3l4.2-2.95c0.449-0.314,0.94-0.424,1.475-0.325
			C668.797,327.031,669.23,327.314,669.55,327.775z M651.075,324.05c0.14-0.534,0.448-0.942,0.925-1.225
			c0.473-0.276,0.973-0.344,1.5-0.2c0.534,0.133,0.942,0.434,1.225,0.9l3.051,5.1c0.276,0.482,0.343,0.99,0.199,1.525
			c-0.14,0.534-0.447,0.942-0.925,1.225c-0.472,0.277-0.972,0.344-1.5,0.2c-0.534-0.134-0.942-0.433-1.225-0.9l-3.05-5.1
			C650.998,325.093,650.932,324.584,651.075,324.05z M554.875,290.6c0.359,0.42,0.518,0.902,0.475,1.45
			c-0.044,0.553-0.277,1.011-0.699,1.375c-0.42,0.359-0.902,0.518-1.45,0.476c-30.56-2.332-62.185-3.783-94.875-4.351
			c-0.548-0.006-1.015-0.206-1.4-0.6c-0.389-0.399-0.58-0.874-0.575-1.425c0.006-0.55,0.206-1.016,0.601-1.4
			c0.397-0.389,0.872-0.58,1.425-0.575c32.776,0.565,64.484,2.016,95.125,4.351C554.053,289.945,554.511,290.178,554.875,290.6z
			 M768,325.225c0.474-0.275,0.974-0.343,1.5-0.199c12,3.174,23.75,6.582,35.25,10.225c0.527,0.164,0.919,0.489,1.175,0.975
			c0.253,0.492,0.295,1,0.125,1.525c-0.163,0.526-0.488,0.918-0.975,1.175c-0.492,0.253-1.001,0.294-1.525,0.125
			c-11.434-3.624-23.117-7.017-35.05-10.175c-0.535-0.141-0.944-0.449-1.225-0.925c-0.277-0.481-0.344-0.99-0.2-1.525
			C767.215,325.898,767.523,325.498,768,325.225z M756.975,322.375c0.285,0.479,0.36,0.987,0.226,1.525
			c-0.139,0.533-0.447,0.941-0.925,1.225c-0.479,0.285-0.987,0.359-1.525,0.225c-50.84-12.844-105.84-22.26-165-28.25
			c-0.55-0.064-1-0.314-1.35-0.75c-0.354-0.424-0.504-0.907-0.45-1.449c0.063-0.549,0.313-1,0.75-1.351
			c0.425-0.353,0.908-0.503,1.45-0.45c59.373,6.011,114.573,15.461,165.6,28.351C756.283,321.589,756.691,321.897,756.975,322.375z
			 M751.15,279.175c0.541,0.086,0.975,0.353,1.3,0.8c0.331,0.443,0.456,0.935,0.375,1.476c-0.079,0.54-0.337,0.974-0.775,1.3
			l-4.25,3.1c-0.452,0.33-0.952,0.455-1.5,0.375c-0.541-0.086-0.975-0.352-1.3-0.8c-0.331-0.442-0.456-0.934-0.375-1.475
			c0.078-0.541,0.337-0.974,0.775-1.3l4.25-3.101C750.102,279.22,750.602,279.095,751.15,279.175z M754.875,281.1
			c0.431-0.352,0.923-0.502,1.475-0.449c0.547,0.055,0.996,0.296,1.351,0.725l3.3,3.95c0.352,0.431,0.501,0.923,0.45,1.475
			c-0.055,0.548-0.297,0.997-0.726,1.351c-0.431,0.352-0.922,0.502-1.475,0.449c-0.546-0.055-0.996-0.297-1.35-0.725l-3.301-3.95
			c-0.351-0.431-0.501-0.923-0.449-1.475C754.205,281.902,754.446,281.453,754.875,281.1z M684.025,264.725
			c0.387,0.395,0.578,0.869,0.574,1.426c0.004,0.556-0.188,1.03-0.574,1.425c-0.395,0.387-0.869,0.578-1.426,0.575h-8.85v8.899
			c0.004,0.556-0.188,1.031-0.575,1.425c-0.394,0.387-0.869,0.579-1.425,0.575c-0.556,0.004-1.031-0.188-1.425-0.575
			c-0.388-0.394-0.579-0.869-0.575-1.425v-8.899h-8.9c-0.556,0.003-1.03-0.188-1.425-0.575c-0.387-0.395-0.578-0.869-0.575-1.425
			c-0.003-0.557,0.188-1.031,0.575-1.426c0.395-0.387,0.869-0.578,1.425-0.574h8.9v-8.9c-0.004-0.557,0.188-1.031,0.575-1.425
			c0.394-0.388,0.869-0.579,1.425-0.575c0.556-0.004,1.031,0.188,1.425,0.575c0.387,0.394,0.579,0.868,0.575,1.425v8.9h8.85
			C683.156,264.146,683.631,264.338,684.025,264.725z M757.725,275.975c0.292-0.477,0.708-0.785,1.25-0.925l3.551-0.95
			c0.528-0.134,1.028-0.059,1.5,0.226c0.478,0.284,0.786,0.692,0.925,1.225c0.135,0.538,0.06,1.046-0.226,1.525
			c-0.291,0.478-0.707,0.786-1.25,0.925l-3.55,0.95c-0.528,0.134-1.028,0.06-1.5-0.226c-0.478-0.283-0.786-0.691-0.925-1.225
			C757.365,276.962,757.44,276.453,757.725,275.975z M753.975,267.775c0.107-0.539,0.391-0.964,0.851-1.275
			c0.458-0.316,0.958-0.424,1.5-0.325c0.539,0.106,0.964,0.39,1.274,0.851c0.316,0.457,0.424,0.957,0.325,1.5l-1,5.35
			c-0.106,0.539-0.39,0.963-0.85,1.275c-0.458,0.315-0.958,0.424-1.5,0.324c-0.539-0.105-0.964-0.389-1.275-0.85
			c-0.315-0.457-0.424-0.957-0.325-1.5L753.975,267.775z M745.825,269.975l5.85,4.5c0.434,0.34,0.684,0.781,0.75,1.325
			c0.071,0.546-0.063,1.038-0.399,1.476c-0.339,0.434-0.78,0.684-1.325,0.75c-0.546,0.069-1.038-0.064-1.476-0.4l-5.85-4.5
			c-0.434-0.34-0.684-0.781-0.75-1.325c-0.071-0.546,0.063-1.038,0.4-1.475c0.338-0.435,0.779-0.685,1.324-0.75
			C744.896,269.505,745.388,269.639,745.825,269.975z M736.45,217.825l0.024,0.024c2.885,2.856,4.326,6.29,4.325,10.301
			c-0.003,4.08-1.444,7.547-4.325,10.399l-0.024,0.025c-2.856,2.884-6.29,4.325-10.3,4.325c-4.008,0.006-7.474-1.437-10.4-4.325
			c-2.897-2.858-4.348-6.333-4.35-10.425c-0.002-4.022,1.448-7.465,4.35-10.325c2.927-2.89,6.393-4.331,10.4-4.325
			C730.16,213.499,733.594,214.94,736.45,217.825z M733.625,220.65c-2.072-2.1-4.564-3.149-7.475-3.15
			c-2.927,0.006-5.46,1.064-7.601,3.175c-2.099,2.072-3.149,4.563-3.149,7.476c-0.003,2.974,1.047,5.498,3.149,7.574
			c2.141,2.111,4.674,3.17,7.601,3.176c2.91-0.002,5.402-1.051,7.475-3.15l0.025-0.025c2.103-2.076,3.152-4.601,3.149-7.574
			c-0.001-2.912-1.051-5.403-3.149-7.476L733.625,220.65z M685.525,181.475c0.387,0.394,0.578,0.869,0.574,1.425
			c0.004,0.556-0.188,1.031-0.574,1.425c-0.395,0.387-0.869,0.578-1.426,0.575H676.2v7.9c0.003,0.556-0.188,1.031-0.575,1.425
			c-0.395,0.387-0.869,0.579-1.425,0.575c-0.556,0.004-1.031-0.188-1.425-0.575c-0.388-0.394-0.579-0.869-0.575-1.425v-7.9h-7.851
			c-0.556,0.003-1.03-0.188-1.425-0.575c-0.387-0.395-0.578-0.869-0.575-1.425c-0.003-0.556,0.188-1.031,0.575-1.425
			c0.395-0.387,0.869-0.579,1.425-0.575h7.851V173c-0.004-0.556,0.188-1.031,0.575-1.425c0.394-0.387,0.869-0.579,1.425-0.575
			c0.556-0.004,1.03,0.188,1.425,0.575c0.387,0.394,0.578,0.869,0.575,1.425v7.9h7.899
			C684.656,180.896,685.131,181.088,685.525,181.475z M64.6,332.525c-0.27,0.481-0.669,0.798-1.199,0.949
			c-6.908,1.959-13.767,4.034-20.575,6.226c-0.524,0.169-1.032,0.128-1.525-0.125c-0.494-0.248-0.827-0.632-1-1.15
			c-0.169-0.524-0.128-1.032,0.125-1.524c0.248-0.494,0.631-0.828,1.15-1c6.858-2.209,13.767-4.301,20.725-6.275
			c0.531-0.152,1.039-0.094,1.525,0.175c0.482,0.271,0.799,0.671,0.95,1.2C64.928,331.531,64.869,332.04,64.6,332.525z
			 M193.05,331.95c0.27,0.487,0.328,0.996,0.175,1.524c-0.162,0.523-0.487,0.916-0.975,1.176l-5.9,3.199
			c-0.489,0.27-0.997,0.328-1.524,0.176c-0.523-0.162-0.915-0.486-1.175-0.976c-0.27-0.487-0.328-0.996-0.176-1.524
			c0.163-0.523,0.488-0.916,0.976-1.176l5.899-3.199c0.49-0.27,0.998-0.328,1.525-0.176
			C192.398,331.137,192.79,331.461,193.05,331.95z M31.35,339.15c0.516-0.17,1.016-0.128,1.5,0.125c0.494,0.248,0.828,0.631,1,1.149
			c0.17,0.524,0.129,1.032-0.125,1.525c-0.255,0.493-0.646,0.827-1.175,1c-2.575,0.825-5.116,1.684-7.625,2.575
			c-0.517,0.186-1.025,0.16-1.524-0.075s-0.84-0.61-1.025-1.125c-0.187-0.519-0.162-1.026,0.075-1.525
			c0.233-0.497,0.608-0.839,1.125-1.024C26.133,340.866,28.725,339.991,31.35,339.15z M187.925,317.85
			c0.417-0.367,0.9-0.533,1.45-0.5c0.549,0.036,1.008,0.262,1.375,0.676l3.7,4.25c0.366,0.417,0.532,0.9,0.5,1.449
			c-0.035,0.551-0.26,1.009-0.675,1.375c-0.417,0.367-0.9,0.534-1.45,0.5c-0.55-0.035-1.008-0.26-1.375-0.675l-3.7-4.25
			c-0.366-0.417-0.533-0.9-0.5-1.45C187.285,318.675,187.51,318.217,187.925,317.85z M159.575,268.475h0.024
			c-1.678-1.65-3.694-2.475-6.05-2.475c-2.328,0-4.345,0.824-6.05,2.475h0.025c-0.289,0.284-0.539,0.567-0.75,0.851
			c-0.019,0.017-0.036,0.033-0.051,0.05c-1.152,1.477-1.728,3.168-1.725,5.075c0.003,2.376,0.845,4.401,2.525,6.075H147.5
			c1.705,1.65,3.722,2.475,6.05,2.475c2.355,0,4.372-0.824,6.05-2.475h-0.024c1.68-1.674,2.521-3.699,2.524-6.075
			c0-1.907-0.566-3.6-1.699-5.075C160.152,269.074,159.877,268.773,159.575,268.475z M162.425,265.625
			c0.413,0.416,0.788,0.833,1.125,1.25c0.016,0.018,0.032,0.034,0.05,0.05c1.667,2.19,2.5,4.699,2.5,7.525
			c0.003,3.489-1.222,6.465-3.675,8.925H162.4c-2.455,2.416-5.405,3.625-8.851,3.625c-3.405,0-6.355-1.209-8.85-3.625h-0.025
			c-2.453-2.46-3.678-5.436-3.675-8.925c0.003-2.827,0.86-5.335,2.575-7.525l-0.05,0.05c0.321-0.45,0.705-0.9,1.149-1.35h0.025
			c2.494-2.416,5.444-3.625,8.85-3.625c3.445,0,6.396,1.209,8.851,3.625H162.425z M78.225,325.75c0.274-0.477,0.674-0.784,1.2-0.925
			c61.573-16.435,129.373-27.76,203.4-33.976c0.545-0.043,1.028,0.115,1.45,0.476c0.43,0.354,0.671,0.804,0.725,1.35
			c0.043,0.546-0.115,1.029-0.475,1.45c-0.354,0.43-0.804,0.671-1.351,0.725c-73.773,6.186-141.34,17.46-202.7,33.825
			c-0.535,0.144-1.044,0.077-1.524-0.2c-0.477-0.273-0.785-0.673-0.925-1.199C77.882,326.74,77.948,326.231,78.225,325.75z
			 M80.475,290.475c0.395-0.387,0.869-0.578,1.426-0.574c0.556-0.004,1.03,0.188,1.425,0.574l3.7,3.65
			c0.387,0.395,0.578,0.869,0.574,1.425c0.004,0.556-0.188,1.031-0.574,1.425c-0.395,0.387-0.869,0.579-1.426,0.575
			c-0.556,0.004-1.03-0.188-1.425-0.575l-3.7-3.649c-0.387-0.395-0.578-0.869-0.574-1.425
			C79.896,291.344,80.088,290.869,80.475,290.475z M86.05,279.4c0.014,0.557-0.169,1.041-0.55,1.449l-2.85,2.851
			c-0.384,0.392-0.851,0.593-1.4,0.6c-0.551,0.015-1.025-0.169-1.425-0.55c-0.402-0.383-0.611-0.85-0.625-1.4
			c-0.014-0.557,0.169-1.041,0.55-1.449l2.85-2.851c0.384-0.392,0.851-0.593,1.4-0.6c0.551-0.015,1.025,0.169,1.425,0.55
			C85.827,278.383,86.036,278.85,86.05,279.4z M72.375,289.1c0.552-0.005,1.026,0.188,1.425,0.575
			c0.395,0.385,0.595,0.851,0.601,1.4c0.005,0.55-0.188,1.024-0.575,1.425l-3.75,3.75c-0.385,0.393-0.852,0.593-1.4,0.6
			c-0.552,0.006-1.026-0.186-1.425-0.574c-0.395-0.385-0.595-0.852-0.6-1.4c-0.006-0.551,0.187-1.025,0.574-1.425l3.75-3.75
			C71.359,289.307,71.826,289.107,72.375,289.1z M68.175,276.1c0.557,0.006,1.031,0.206,1.425,0.601l2.9,2.95
			c0.379,0.398,0.563,0.873,0.55,1.425c-0.006,0.549-0.205,1.016-0.6,1.399c-0.398,0.389-0.874,0.58-1.425,0.575
			c-0.557-0.006-1.031-0.206-1.426-0.6L66.7,279.5c-0.379-0.398-0.563-0.873-0.55-1.425c0.005-0.55,0.205-1.017,0.6-1.4
			C67.148,276.287,67.624,276.095,68.175,276.1z M115.875,207.025c0.395-0.387,0.869-0.579,1.425-0.575
			c0.556-0.004,1.031,0.188,1.425,0.575c0.387,0.394,0.579,0.869,0.575,1.425v10.399h10.3c0.557-0.004,1.031,0.188,1.426,0.575
			c0.387,0.394,0.578,0.869,0.574,1.425c0.004,0.557-0.188,1.031-0.574,1.426c-0.395,0.387-0.869,0.578-1.426,0.574h-10.3V233.2
			c0.004,0.556-0.188,1.03-0.575,1.425c-0.394,0.387-0.869,0.578-1.425,0.575c-0.556,0.003-1.03-0.188-1.425-0.575
			c-0.387-0.395-0.579-0.869-0.575-1.425V222.85h-10.35c-0.556,0.004-1.031-0.188-1.425-0.574c-0.388-0.395-0.579-0.869-0.575-1.426
			c-0.004-0.556,0.188-1.031,0.575-1.425c0.394-0.387,0.869-0.579,1.425-0.575h10.35V208.45
			C115.296,207.895,115.488,207.419,115.875,207.025z M172.275,170.175c-0.388-0.394-0.579-0.869-0.575-1.425
			c-0.004-0.556,0.188-1.031,0.575-1.425c0.394-0.387,0.869-0.579,1.425-0.575h7.85v-7.9c-0.004-0.556,0.188-1.031,0.575-1.425
			c0.395-0.387,0.869-0.579,1.425-0.575c0.556-0.004,1.031,0.188,1.425,0.575c0.387,0.394,0.579,0.869,0.575,1.425v7.9h7.9
			c0.556-0.004,1.03,0.188,1.425,0.575c0.387,0.394,0.578,0.869,0.575,1.425c0.003,0.556-0.188,1.031-0.575,1.425
			c-0.395,0.387-0.869,0.579-1.425,0.575h-7.9v7.9c0.004,0.556-0.188,1.031-0.575,1.425c-0.394,0.387-0.869,0.578-1.425,0.575
			c-0.556,0.003-1.03-0.188-1.425-0.575c-0.387-0.395-0.579-0.869-0.575-1.425v-7.9h-7.85
			C173.145,170.753,172.669,170.562,172.275,170.175z M666.275,72.125c-0.69-0.461-1.115-1.094-1.275-1.9
			c-0.151-0.811,0.007-1.561,0.475-2.25l14.65-21.55c0.463-0.689,1.096-1.114,1.9-1.275c0.812-0.153,1.562,0.005,2.25,0.475
			c0.689,0.461,1.114,1.094,1.274,1.9c0.151,0.811-0.007,1.561-0.475,2.25l-14.65,21.55c-0.462,0.689-1.096,1.114-1.899,1.275
			C667.713,72.753,666.963,72.595,666.275,72.125z M660,77.25c0.81-0.162,1.56-0.012,2.25,0.45c0.696,0.458,1.13,1.092,1.3,1.9
			c0.161,0.815,0.012,1.574-0.45,2.275l-3.199,4.75c-0.46,0.686-1.093,1.111-1.9,1.275c-0.81,0.162-1.56,0.012-2.25-0.45
			c-0.696-0.459-1.13-1.092-1.3-1.9c-0.162-0.815-0.012-1.574,0.45-2.275l3.199-4.75C658.56,77.839,659.192,77.414,660,77.25z
			 M465.2,36.475c0.438,0.71,0.563,1.469,0.375,2.275l-5.101,21.5c-0.193,0.801-0.644,1.417-1.35,1.85
			c-0.71,0.439-1.469,0.564-2.275,0.375c-0.8-0.193-1.416-0.643-1.85-1.35c-0.438-0.71-0.563-1.469-0.375-2.275l5.1-21.5
			c0.194-0.801,0.645-1.417,1.351-1.85c0.71-0.439,1.468-0.564,2.274-0.375C464.15,35.318,464.767,35.768,465.2,36.475z
			 M479.4,73.05l19.899-13.1c0.693-0.453,1.443-0.595,2.25-0.425c0.81,0.163,1.442,0.587,1.9,1.275
			c0.454,0.692,0.596,1.442,0.425,2.25c-0.164,0.808-0.589,1.441-1.275,1.9L482.7,78.05c-0.693,0.453-1.443,0.595-2.25,0.425
			c-0.81-0.163-1.442-0.588-1.9-1.275c-0.454-0.692-0.596-1.442-0.425-2.25C478.289,74.142,478.714,73.509,479.4,73.05z
			 M490.7,37.175c0.816-0.098,1.55,0.111,2.2,0.625c0.651,0.514,1.026,1.18,1.125,2c0.096,0.816-0.112,1.549-0.625,2.2l-19.45,24.95
			c-0.515,0.65-1.182,1.025-2,1.125c-0.816,0.098-1.55-0.111-2.2-0.625c-0.651-0.513-1.026-1.18-1.125-2
			c-0.096-0.816,0.112-1.549,0.625-2.2L488.7,38.3C489.215,37.649,489.881,37.274,490.7,37.175z M216.15,57.725
			c0.406-0.725,1.006-1.2,1.8-1.425c0.794-0.216,1.553-0.116,2.274,0.3c0.724,0.405,1.199,1.005,1.426,1.8l0.449,1.8
			c0.215,0.793,0.115,1.551-0.3,2.275c-0.406,0.724-1.007,1.199-1.8,1.425c-0.794,0.216-1.553,0.116-2.275-0.3
			c-0.723-0.405-1.198-1.005-1.425-1.8l-0.45-1.8C215.636,59.207,215.735,58.449,216.15,57.725z M241.025,20.75H241
			c-9.696-2.643-20.538-2.359-32.525,0.85c-11.917,3.179-21.492,8.362-28.725,15.55l-0.025,0.025
			c-6.464,6.591-8.905,13.107-7.324,19.55c1.837,6.302,7.204,10.677,16.1,13.125h-0.025c9.86,2.614,20.769,2.331,32.726-0.85
			c2.479-0.69,7.111-2.374,13.899-5.05c0.718-0.282,1.435-0.29,2.15-0.025l11.3,4.175l-2.45-9c-0.151-0.56-0.143-1.118,0.025-1.675
			c0.167-0.543,0.467-1.001,0.9-1.375c0.979-0.85,1.912-1.7,2.8-2.55c0.017-0.017,0.033-0.034,0.05-0.05
			c6.53-6.614,9.022-13.123,7.475-19.525C255.51,27.564,250.067,23.173,241.025,20.75z M242.6,14.95h-0.024
			c11.625,3.11,18.483,8.919,20.575,17.425c2.383,8.38-0.643,16.821-9.075,25.325c-0.019,0.014-0.035,0.031-0.05,0.05
			c-0.53,0.513-1.072,1.029-1.625,1.55l3.5,12.85c0.197,0.74,0.123,1.457-0.226,2.15c-0.342,0.686-0.867,1.169-1.575,1.45
			c-0.716,0.282-1.432,0.29-2.149,0.025l-15.726-5.8c-6.495,2.543-10.97,4.152-13.425,4.825h-0.024
			c-13.1,3.484-25.05,3.768-35.851,0.85H186.9c-11.439-3.153-18.206-8.944-20.301-17.375c-2.418-8.415,0.532-16.857,8.851-25.325
			l0.024-0.025c7.898-7.933,18.382-13.641,31.45-17.125C220.071,12.276,231.963,11.993,242.6,14.95z M218.775,28.35
			c0.043,0.023,0.084,0.048,0.125,0.075c2.797,1.546,4.597,3.846,5.399,6.9V35.3c0.85,3.088,0.441,6.021-1.225,8.8
			c-0.023,0.042-0.049,0.084-0.075,0.125c-0.955,1.693-2.222,3.01-3.8,3.95l0.024-0.025c-0.1,0.063-0.199,0.121-0.3,0.175
			l0.825,3.15c0.207,0.801,0.099,1.559-0.325,2.275c-0.419,0.719-1.027,1.186-1.825,1.4c-0.791,0.207-1.541,0.099-2.25-0.325
			c-0.719-0.412-1.186-1.012-1.399-1.8l-1.5-5.7c-0.144-0.522-0.144-1.048,0-1.575c0.152-0.523,0.427-0.973,0.825-1.35
			c0.393-0.384,0.851-0.642,1.375-0.775c0.516-0.121,0.99-0.313,1.425-0.575l0.024-0.025c0.716-0.437,1.291-1.044,1.726-1.825
			c0.024-0.038,0.049-0.079,0.075-0.125c0.804-1.318,1.004-2.709,0.6-4.175v-0.025c-0.385-1.433-1.243-2.507-2.575-3.225
			c-0.038-0.025-0.08-0.05-0.125-0.075c-1.272-0.768-2.631-0.959-4.075-0.575c-1.44,0.384-2.565,1.218-3.375,2.5
			c-0.665,1.275-0.831,2.642-0.5,4.1c0.178,0.486,0.311,0.953,0.4,1.4c0.161,0.809,0.011,1.559-0.45,2.25
			c-0.459,0.697-1.092,1.13-1.899,1.3c-0.81,0.162-1.56,0.012-2.25-0.45c-0.696-0.458-1.13-1.091-1.301-1.9
			c-0.039-0.199-0.098-0.407-0.175-0.625c-0.027-0.092-0.053-0.184-0.075-0.275c-0.804-3.068-0.487-5.935,0.95-8.6
			c0.024-0.038,0.05-0.08,0.075-0.125c1.653-2.78,4.004-4.572,7.05-5.375C213.218,26.396,216.084,26.78,218.775,28.35z" fill="#9BA8D5" clip-rule="evenodd" fill-rule="evenodd"></path>
	</g>
	<g>
		<linearGradient y2="95.6006" x2="413.5854" y1="314.0088" x1="413.5854" gradientUnits="userSpaceOnUse" id="SVGID_1_">
			<stop style="stop-color:#478CCB" offset="0"></stop>
			<stop style="stop-color:#6AABDE" offset="1"></stop>
		</linearGradient>
		<path d="M259.775,251.825l17.774-1.226l-2.649-37.425
			L259.775,251.825z M331.7,268.625c0.546-0.627,1.229-0.969,2.05-1.025c0.825-0.051,1.551,0.199,2.175,0.75
			c0.626,0.548,0.968,1.23,1.025,2.051l0.75,10.699c0.05,0.822-0.2,1.548-0.75,2.176c-0.546,0.625-1.229,0.967-2.05,1.024l-13,0.925
			l0.35,5.301c0.05,0.828-0.2,1.553-0.75,2.175c-0.556,0.618-1.247,0.952-2.075,1c-0.826,0.05-1.552-0.2-2.175-0.75
			c-0.618-0.558-0.952-1.249-1-2.075l-0.55-8.25c-0.048-0.816,0.202-1.533,0.75-2.15c0.545-0.623,1.229-0.965,2.05-1.024l13-0.925
			l-0.55-7.726C330.899,269.973,331.149,269.248,331.7,268.625z M279.15,197.625c0.48,0.518,0.747,1.127,0.8,1.825l3.8,53.75
			c0.06,0.813-0.183,1.53-0.725,2.149c-0.551,0.633-1.243,0.983-2.075,1.051l-25.5,1.75c-0.69,0.047-1.324-0.129-1.9-0.525
			c-0.576-0.398-0.968-0.932-1.175-1.6c-0.205-0.664-0.181-1.322,0.075-1.976l21.7-55.5c0.256-0.649,0.689-1.149,1.3-1.5
			c0.61-0.354,1.261-0.479,1.95-0.375C278.089,196.785,278.672,197.103,279.15,197.625z M462.55,264.1
			c0.567-0.6,1.267-0.899,2.101-0.899c0.833,0,1.55,0.3,2.149,0.899c0.567,0.566,0.851,1.268,0.851,2.101
			c0,1.167-0.033,2.333-0.101,3.5v0.05c-0.633,7.566-3.417,14.45-8.35,20.65c-0.5,0.633-1.167,1-2,1.1
			c-0.833,0.066-1.567-0.15-2.2-0.65c-0.667-0.5-1.033-1.166-1.1-2c-0.101-0.833,0.1-1.566,0.6-2.199
			c4.133-5.234,6.483-11.033,7.05-17.4c0.067-1,0.101-2.017,0.101-3.05C461.65,265.367,461.95,264.666,462.55,264.1z M424.45,144.6
			c0-2.467-0.934-4.583-2.8-6.35c-1.9-1.8-4.2-2.7-6.9-2.7h-0.05c-2.7,0-5,0.9-6.9,2.7h-0.05c-1.833,1.767-2.75,3.883-2.75,6.35
			v116.65c0,2.467,0.917,4.584,2.75,6.35h0.05c1.9,1.801,4.2,2.7,6.9,2.7h0.05c2.7,0,5-0.899,6.9-2.7v-0.05
			c1.866-1.733,2.8-3.833,2.8-6.3V144.6z M425.75,133.9h0.05c3.101,2.967,4.65,6.534,4.65,10.7v116.65c0,4.2-1.55,7.767-4.65,10.7
			h-0.05c-3.033,2.899-6.7,4.35-11,4.35h-0.05c-4.3,0-7.983-1.45-11.05-4.35c-3.101-2.934-4.65-6.5-4.65-10.7V144.6
			c0-4.167,1.55-7.733,4.65-10.7v-0.05c3.066-2.867,6.75-4.3,11.05-4.3h0.05C419.05,129.55,422.717,131,425.75,133.9z
			 M586.8,295.625l0.601-8.3c0.063-0.823,0.413-1.507,1.05-2.05c0.63-0.547,1.354-0.789,2.175-0.726l12.975,0.925l0.551-7.699
			c0.067-0.826,0.417-1.51,1.05-2.051c0.628-0.543,1.353-0.785,2.175-0.725c0.824,0.066,1.508,0.417,2.05,1.05
			c0.543,0.63,0.784,1.354,0.726,2.175l-0.75,10.7c-0.066,0.826-0.416,1.51-1.051,2.05c-0.629,0.545-1.354,0.787-2.175,0.726
			l-13-0.925l-0.375,5.3c-0.066,0.823-0.417,1.507-1.05,2.05c-0.627,0.543-1.352,0.785-2.175,0.725
			c-0.823-0.066-1.507-0.416-2.05-1.05C586.982,297.173,586.74,296.447,586.8,295.625z M536.3,249.075l17.75,1.25l2.575-37.4
			L536.3,249.075z M557.925,198.325c0.346-0.606,0.846-1.039,1.5-1.3c0.651-0.267,1.31-0.3,1.976-0.101
			c0.674,0.203,1.216,0.595,1.625,1.175c0.4,0.574,0.575,1.208,0.524,1.9l-3.7,53.75c-0.054,0.821-0.396,1.504-1.024,2.05
			c-0.629,0.554-1.354,0.804-2.175,0.75l-25.5-1.8c-0.7-0.058-1.309-0.324-1.825-0.8c-0.51-0.468-0.817-1.042-0.925-1.726
			c-0.118-0.688-0.01-1.337,0.324-1.949L557.925,198.325z M565.175,113.025c0.019-0.014,0.035-0.031,0.05-0.05
			c5.05-8.782,13.166-11.898,24.351-9.35c0.047,0.016,0.097,0.033,0.149,0.05c10.91,3.109,15.951,9.534,15.125,19.275v0.025
			L595.8,253.25l13,0.9c0.835,0.064,1.526,0.414,2.075,1.05c0.545,0.624,0.787,1.349,0.725,2.175l-0.5,6.6
			c-0.067,0.825-0.417,1.509-1.05,2.051c-0.628,0.543-1.354,0.785-2.175,0.725c-0.824-0.066-1.508-0.417-2.05-1.05
			c-0.543-0.63-0.785-1.354-0.726-2.175l0.275-3.575l-12.975-0.9c-0.822-0.056-1.506-0.397-2.051-1.024
			c-0.552-0.625-0.802-1.35-0.75-2.176l9.25-133.3v-0.025c0.367-6.578-3.225-10.945-10.774-13.1l0.149,0.05
			c-8.121-1.848-14.055,0.319-17.8,6.5l-71.075,126.55c-0.009,0.016-0.017,0.033-0.024,0.05c-0.774,1.457-1.217,2.966-1.325,4.524
			l-1.2,18.051c0.001,0.018,0.001,0.043,0,0.074c-0.129,1.415-0.004,2.74,0.375,3.976c-0.001,0.024-0.001,0.05,0,0.075
			c0.552,1.847,1.593,3.563,3.125,5.149l-0.1-0.125c3.064,2.837,6.581,4.387,10.55,4.65h0.025l44.1,3.149
			c0.823,0.065,1.507,0.416,2.05,1.051c0.544,0.627,0.786,1.352,0.726,2.175l-1.476,20.35l29.7,2.101l0.175-2.65
			c0.067-0.824,0.417-1.508,1.05-2.05c0.627-0.544,1.353-0.785,2.176-0.726c0.822,0.066,1.506,0.416,2.05,1.051
			c0.542,0.627,0.784,1.352,0.725,2.175l-0.35,5.649c-0.065,0.824-0.415,1.508-1.05,2.051c-0.627,0.544-1.352,0.785-2.176,0.725
			l-35.75-2.55c-0.822-0.067-1.506-0.417-2.05-1.05c-0.542-0.627-0.784-1.352-0.725-2.176l1.475-20.35l-41.1-2.925
			c-5.354-0.343-10.097-2.427-14.226-6.25c-0.031-0.042-0.064-0.085-0.1-0.125c-2.268-2.347-3.793-4.897-4.575-7.65V271
			c-0.62-1.965-0.829-4.073-0.625-6.325L492,246.7c0.157-2.423,0.84-4.765,2.05-7.025L565.175,113.025z M377.6,108.65
			c10.367-8.7,22.75-13.05,37.15-13.05s26.767,4.35,37.1,13.05c10.567,8.833,15.834,19.35,15.801,31.55v115.05
			c0,0.834-0.283,1.55-0.851,2.15c-0.6,0.566-1.316,0.85-2.149,0.85c-0.834,0-1.533-0.283-2.101-0.85
			c-0.6-0.601-0.899-1.316-0.899-2.15V140.2c-0.033-10.4-4.584-19.384-13.65-26.95c-9.233-7.767-20.316-11.65-33.25-11.65
			s-24.033,3.883-33.3,11.65c-9.033,7.566-13.566,16.55-13.601,26.95v126c0,1,0.051,2.017,0.15,3.05
			c0.533,6.367,2.866,12.166,7,17.4c1.82,2.25,3.953,4.416,6.4,6.5c1.033,0.833,2.1,1.616,3.199,2.35l0.051,0.05
			c8.566,5.8,18.6,8.684,30.1,8.65c11.5,0,21.55-2.884,30.15-8.65c0.666-0.5,1.416-0.667,2.25-0.5c0.8,0.167,1.433,0.601,1.899,1.3
			c0.467,0.667,0.617,1.417,0.45,2.25c-0.167,0.801-0.583,1.434-1.25,1.9c-9.566,6.467-20.733,9.7-33.5,9.7
			c-12.767-0.034-23.917-3.267-33.45-9.7c-1.233-0.8-2.45-1.684-3.649-2.65c-0.034-0.033-0.067-0.05-0.101-0.05
			c-2.8-2.366-5.217-4.833-7.25-7.399c-4.934-6.2-7.7-13.084-8.3-20.65c-0.1-1.166-0.15-2.35-0.15-3.55v-126
			C361.816,128,367.066,117.483,377.6,108.65z M269.45,113.1l0.024-0.025c3.761-9.446,11.369-13.671,22.825-12.675
			c0.047,0.007,0.097,0.016,0.15,0.025c11.234,1.54,17.134,7.215,17.7,17.025l9.149,130.225l12.976-0.925
			c0.832-0.058,1.565,0.192,2.199,0.75c0.633,0.553,0.975,1.244,1.025,2.075l0.45,6.649c0.05,0.828-0.2,1.553-0.75,2.176
			c-0.556,0.619-1.247,0.951-2.075,1c-0.827,0.05-1.552-0.2-2.175-0.75c-0.618-0.557-0.952-1.248-1-2.075l-0.25-3.601l-12.976,0.926
			c-0.825,0.061-1.55-0.181-2.175-0.726c-0.635-0.55-0.985-1.241-1.05-2.075l-9.35-133.25c-0.563-6.547-4.68-10.364-12.351-11.45
			c-8.345-0.738-13.937,2.237-16.774,8.925l0.024-0.025l-52.8,135.25l0.025-0.1c-0.553,1.589-0.777,3.163-0.676,4.725l1.301,18.101
			v0.05c0.07,1.413,0.379,2.722,0.925,3.925c0.827,1.752,2.11,3.318,3.85,4.7c3.402,2.303,7.077,3.319,11.025,3.05l44.05-3.05
			c0.824-0.05,1.549,0.2,2.175,0.75c0.625,0.545,0.967,1.228,1.025,2.05l1.399,20.4l29.726-2.101l-0.175-2.625
			c-0.06-0.822,0.183-1.548,0.725-2.175c0.543-0.634,1.227-0.984,2.05-1.05c0.823-0.06,1.548,0.182,2.175,0.725
			c0.634,0.543,0.983,1.227,1.051,2.05l0.399,5.65c0.062,0.83-0.181,1.564-0.725,2.2c-0.55,0.626-1.241,0.968-2.075,1.024
			l-35.75,2.5c-0.826,0.053-1.551-0.197-2.175-0.75c-0.627-0.545-0.969-1.228-1.025-2.05l-1.399-20.399L239.1,291
			c-5.383,0.393-10.383-1.016-15-4.225c-0.056-0.041-0.114-0.084-0.175-0.125c-2.527-2.02-4.377-4.319-5.55-6.9
			c-0.854-1.863-1.346-3.889-1.475-6.075l-1.301-18.05V255.6c-0.161-2.363,0.181-4.746,1.025-7.149
			c0.01-0.032,0.018-0.065,0.025-0.101L269.45,113.1z" fill="url(#SVGID_1_)" clip-rule="evenodd" fill-rule="evenodd"></path>
	</g>
</g>
</svg>
